<svg t="1738822249895" class="icon" viewBox="0 0 1024 1024" version="1.1" xmlns="http://www.w3.org/2000/svg" p-id="4213" width="200" height="200"><path d="M1023.089778 284.444444L739.555556 0.910222V0H113.777778a113.777778 113.777778 0 0 0-113.777778 113.777778v796.444444a113.777778 113.777778 0 0 0 113.777778 113.777778h796.444444a113.777778 113.777778 0 0 0 113.777778-113.777778V284.444444h-0.910222z m-160.938667 0H739.555556V161.848889L862.151111 284.444444zM910.222222 910.222222H113.777778V113.777778h512v284.444444h284.444444v512z" fill="#e53e3e" p-id="4214"></path><path d="M585.102222 471.324444a54.556444 54.556444 0 0 0 0 77.198223L699.562667 625.777778l-114.460445 77.198222a54.613333 54.613333 0 0 0 77.255111 77.255111l148.48-100.181333a53.475556 53.475556 0 0 0 26.282667-13.596445 53.646222 53.646222 0 0 0 15.587556-40.675555 53.873778 53.873778 0 0 0-15.587556-40.675556 53.020444 53.020444 0 0 0-26.282667-13.596444l-148.48-100.181334a54.613333 54.613333 0 0 0-77.255111 0zM438.897778 471.324444a54.613333 54.613333 0 0 0-77.255111 0l-148.48 100.181334a53.475556 53.475556 0 0 0-26.282667 13.596444 53.646222 53.646222 0 0 0-15.587556 40.675556 53.646222 53.646222 0 0 0 15.587556 40.675555c7.452444 7.452444 16.725333 11.377778 26.282667 13.596445l148.48 100.181333a54.613333 54.613333 0 0 0 77.255111-77.255111L324.437333 625.777778l114.460445-77.255111a54.556444 54.556444 0 0 0 0-77.198223z" fill="#e53e3e" p-id="4215"></path></svg>
