<svg t="1738916283934" class="icon" viewBox="0 0 1024 1024" version="1.1" xmlns="http://www.w3.org/2000/svg" p-id="11693" width="200" height="200"><path d="M164.571429 109.714286a36.571429 36.571429 0 0 0-36.571429 36.571428v475.428572a292.571429 292.571429 0 1 0 73.142857-193.536V146.285714a36.571429 36.571429 0 0 0-36.571428-36.571428z m36.571428 512a219.428571 219.428571 0 1 1 438.857143 0 219.428571 219.428571 0 0 1-438.857143 0zM530.285714 182.857143a36.571429 36.571429 0 0 1 36.571429-36.571429 329.142857 329.142857 0 0 1 329.142857 329.142857 36.571429 36.571429 0 1 1-73.142857 0 256 256 0 0 0-256-256 36.571429 36.571429 0 0 1-36.571429-36.571428z" fill="#22c55e" p-id="11694"></path></svg>
